<?xml version="1.0" encoding="utf-8"?>
<!-- Generator: Adobe Illustrator 25.1.0, SVG Export Plug-In . SVG Version: 6.00 Build 0)  -->
<svg version="1.1" id="Layer_1" xmlns="http://www.w3.org/2000/svg" xmlns:xlink="http://www.w3.org/1999/xlink" x="0px" y="0px"
	 viewBox="0 0 566.9 127.1" style="enable-background:new 0 0 566.9 127.1;" xml:space="preserve">
<style type="text/css">
	.st0{fill:url(#SVGID_1_);}
	.st1{fill:url(#SVGID_2_);}
	.st2{fill:url(#SVGID_3_);}
	.st3{fill:url(#SVGID_4_);}
	.st4{fill:url(#SVGID_5_);}
	.st5{fill:url(#SVGID_6_);}
	.st6{fill:url(#SVGID_7_);}
	.st7{fill:url(#SVGID_8_);}
	.st8{fill:url(#SVGID_9_);}
	.st9{fill:url(#SVGID_10_);}
</style>
<g id="Greentube_Logo_Master_Colour_2_">
	<linearGradient id="SVGID_1_" gradientUnits="userSpaceOnUse" x1="32.7826" y1="-6.3518" x2="32.7826" y2="89.9851">
		<stop  offset="7.008269e-07" style="stop-color:#B0FF0B"/>
		<stop  offset="0.1124" style="stop-color:#A7FA0C"/>
		<stop  offset="0.2958" style="stop-color:#8FED0E"/>
		<stop  offset="0.5274" style="stop-color:#67D811"/>
		<stop  offset="0.7953" style="stop-color:#30BC15"/>
		<stop  offset="1" style="stop-color:#02A319"/>
	</linearGradient>
	<path class="st0" d="M32.8,71.4c-8.9,0-16.1-7.2-16.1-16.1c0-8.9,7.2-16.1,16.1-16.1s16.1,7.2,16.1,16.1
		C48.8,64.2,41.6,71.4,32.8,71.4 M65.5,22.6H48.9v4.3c-4.8-2.7-10.2-4.2-16.1-4.2c-18,0-32.7,14.7-32.7,32.7S14.7,88,32.8,88
		s32.7-14.7,32.7-32.7c0-0.1,0-0.1,0-0.2h0V22.6z"/>
	<linearGradient id="SVGID_2_" gradientUnits="userSpaceOnUse" x1="32.7516" y1="-7.5133" x2="32.7516" y2="89.9579">
		<stop  offset="7.008269e-07" style="stop-color:#B0FF0B"/>
		<stop  offset="0.1124" style="stop-color:#A7FA0C"/>
		<stop  offset="0.2958" style="stop-color:#8FED0E"/>
		<stop  offset="0.5274" style="stop-color:#67D811"/>
		<stop  offset="0.7953" style="stop-color:#30BC15"/>
		<stop  offset="1" style="stop-color:#02A319"/>
	</linearGradient>
	<path class="st1" d="M16.6,127.1H0c0-17.9,14.6-32.5,32.5-32.5h33v16.6h-33C23.7,111.1,16.6,118.3,16.6,127.1"/>
	<linearGradient id="SVGID_3_" gradientUnits="userSpaceOnUse" x1="88.4588" y1="-8.2429" x2="88.4588" y2="88.6659">
		<stop  offset="7.008269e-07" style="stop-color:#B0FF0B"/>
		<stop  offset="0.1124" style="stop-color:#A7FA0C"/>
		<stop  offset="0.2958" style="stop-color:#8FED0E"/>
		<stop  offset="0.5274" style="stop-color:#67D811"/>
		<stop  offset="0.7953" style="stop-color:#30BC15"/>
		<stop  offset="1" style="stop-color:#02A319"/>
	</linearGradient>
	<path class="st2" d="M88.8,88H72.2v-33c0-17.9,14.6-32.5,32.5-32.5v16.6c-8.8,0-16,7.2-16,16V88z"/>
	<linearGradient id="SVGID_4_" gradientUnits="userSpaceOnUse" x1="392.5852" y1="-13.7212" x2="392.5852" y2="81.4974">
		<stop  offset="7.008269e-07" style="stop-color:#B0FF0B"/>
		<stop  offset="0.1124" style="stop-color:#A7FA0C"/>
		<stop  offset="0.2958" style="stop-color:#8FED0E"/>
		<stop  offset="0.5274" style="stop-color:#67D811"/>
		<stop  offset="0.7953" style="stop-color:#30BC15"/>
		<stop  offset="1" style="stop-color:#02A319"/>
	</linearGradient>
	<path class="st3" d="M392.6,88C374.6,88,360,73.4,360,55.5V22.6h16.6v32.9c0,8.8,7.2,16,16,16c8.8,0,16-7.2,16-16V22.6h16.6v32.9
		C425.1,73.4,410.5,88,392.6,88"/>
	<linearGradient id="SVGID_5_" gradientUnits="userSpaceOnUse" x1="279.9828" y1="-11.8284" x2="279.9828" y2="83.3902">
		<stop  offset="7.008269e-07" style="stop-color:#B0FF0B"/>
		<stop  offset="0.1124" style="stop-color:#A7FA0C"/>
		<stop  offset="0.2958" style="stop-color:#8FED0E"/>
		<stop  offset="0.5274" style="stop-color:#67D811"/>
		<stop  offset="0.7953" style="stop-color:#30BC15"/>
		<stop  offset="1" style="stop-color:#02A319"/>
	</linearGradient>
	<path class="st4" d="M312.5,88H296V55.2c0-8.8-7.2-16-16-16s-16,7.2-16,16V88h-16.6V55.2c0-17.9,14.6-32.5,32.5-32.5
		s32.5,14.6,32.5,32.5V88z"/>
	<linearGradient id="SVGID_6_" gradientUnits="userSpaceOnUse" x1="465.3011" y1="-15.7476" x2="465.3011" y2="79.7613">
		<stop  offset="7.008269e-07" style="stop-color:#B0FF0B"/>
		<stop  offset="0.1124" style="stop-color:#A7FA0C"/>
		<stop  offset="0.2958" style="stop-color:#8FED0E"/>
		<stop  offset="0.5274" style="stop-color:#67D811"/>
		<stop  offset="0.7953" style="stop-color:#30BC15"/>
		<stop  offset="1" style="stop-color:#02A319"/>
	</linearGradient>
	<path class="st5" d="M465.3,71.5c-8.8,0-16-7.2-16-16s7.2-16,16-16c8.8,0,16,7.2,16,16S474.1,71.5,465.3,71.5 M465.3,23
		c-5.8,0-11.3,1.5-16,4.2V0h-16.6v55.5c0,17.9,14.6,32.5,32.5,32.5c17.9,0,32.5-14.6,32.5-32.5S483.2,23,465.3,23"/>
	<linearGradient id="SVGID_7_" gradientUnits="userSpaceOnUse" x1="335.491" y1="-13.0693" x2="335.491" y2="82.448">
		<stop  offset="7.008269e-07" style="stop-color:#B0FF0B"/>
		<stop  offset="0.1124" style="stop-color:#A7FA0C"/>
		<stop  offset="0.2958" style="stop-color:#8FED0E"/>
		<stop  offset="0.5274" style="stop-color:#67D811"/>
		<stop  offset="0.7953" style="stop-color:#30BC15"/>
		<stop  offset="1" style="stop-color:#02A319"/>
	</linearGradient>
	<path class="st6" d="M351.8,39.2V22.6h-16V0h-16.6v55.3c0,17.9,14.6,32.5,32.5,32.5V71.3c-8.8,0-16-7.2-16-16V39.2H351.8z"/>
	<linearGradient id="SVGID_8_" gradientUnits="userSpaceOnUse" x1="139.2261" y1="-8.8806" x2="139.2261" y2="87.4514">
		<stop  offset="7.008269e-07" style="stop-color:#B0FF0B"/>
		<stop  offset="0.1124" style="stop-color:#A7FA0C"/>
		<stop  offset="0.2958" style="stop-color:#8FED0E"/>
		<stop  offset="0.5274" style="stop-color:#67D811"/>
		<stop  offset="0.7953" style="stop-color:#30BC15"/>
		<stop  offset="1" style="stop-color:#02A319"/>
	</linearGradient>
	<path class="st7" d="M170.7,63.8c0.7-2.6,1.1-5.4,1.1-8.3c0-17.9-14.6-32.5-32.5-32.5s-32.5,14.6-32.5,32.5S121.3,88,139.2,88
		c13.2,0,24.7-7.9,29.7-19.3h-20.8c-2.6,1.8-5.7,2.8-9,2.8c-8.8,0-16-7.2-16-16c0-8.8,7.2-16,16-16c5.8,0,10.9,3.1,13.7,7.7h-18.1
		v16.6L170.7,63.8z"/>
	<linearGradient id="SVGID_9_" gradientUnits="userSpaceOnUse" x1="209.6016" y1="-10.5557" x2="209.6016" y2="85.7763">
		<stop  offset="7.008269e-07" style="stop-color:#B0FF0B"/>
		<stop  offset="0.1124" style="stop-color:#A7FA0C"/>
		<stop  offset="0.2958" style="stop-color:#8FED0E"/>
		<stop  offset="0.5274" style="stop-color:#67D811"/>
		<stop  offset="0.7953" style="stop-color:#30BC15"/>
		<stop  offset="1" style="stop-color:#02A319"/>
	</linearGradient>
	<path class="st8" d="M205.1,63.8V47.2h18.1c-2.8-4.6-7.9-7.7-13.7-7.7c-8.8,0-16,7.2-16,16c0,8.8,7.2,16,16,16c3.3,0,6.4-1,9-2.8
		h20.8C234.3,80.1,222.9,88,209.6,88c-17.9,0-32.5-14.6-32.5-32.5c0-17.9,14.6-32.5,32.5-32.5c17.9,0,32.5,14.6,32.5,32.5
		c0,2.9-0.4,5.6-1.1,8.3L205.1,63.8z"/>
	<linearGradient id="SVGID_10_" gradientUnits="userSpaceOnUse" x1="534.3859" y1="-18.2864" x2="534.3859" y2="78.0456">
		<stop  offset="7.008269e-07" style="stop-color:#B0FF0B"/>
		<stop  offset="0.1124" style="stop-color:#A7FA0C"/>
		<stop  offset="0.2958" style="stop-color:#8FED0E"/>
		<stop  offset="0.5274" style="stop-color:#67D811"/>
		<stop  offset="0.7953" style="stop-color:#30BC15"/>
		<stop  offset="1" style="stop-color:#02A319"/>
	</linearGradient>
	<path class="st9" d="M548,63.8C548,63.8,548,63.8,548,63.8l-18.1,0V47.2H548c-2.8-4.6-7.9-7.7-13.7-7.7c-8.8,0-16,7.2-16,16
		c0,8.8,7.2,16,16,16c3.3,0,6.4-1,9-2.8h20.8C559,80.1,547.6,88,534.4,88c-17.9,0-32.5-14.6-32.5-32.5S516.4,23,534.4,23
		c17.9,0,32.5,14.6,32.5,32.5c0,2.9-0.4,5.6-1.1,8.3H548z"/>
</g>
</svg>
